<?xml version="1.0" encoding="UTF-8"?>
<svg version="1.1" xmlns="http://www.w3.org/2000/svg" width="500" height="500">
<path d="M0 0 C1.88671875 2.0078125 1.88671875 2.0078125 1.88671875 6.0078125 C0.2421875 8.11328125 0.2421875 8.11328125 -1.92578125 10.1953125 C-2.63347656 10.89011719 -3.34117187 11.58492187 -4.0703125 12.30078125 C-6.11328125 14.0078125 -6.11328125 14.0078125 -9.11328125 15.0078125 C-11.30260725 13.74985723 -13.30339404 12.45288426 -15.36328125 11.0078125 C-38.16975907 -4.24321823 -65.0384271 -10.10645562 -92.11328125 -4.9921875 C-105.0303954 -2.28787955 -117.54096223 2.7590202 -128.4453125 10.25390625 C-131.11328125 12.0078125 -131.11328125 12.0078125 -133.11328125 12.0078125 C-131.90297151 14.58108683 -131.90297151 14.58108683 -130.11328125 17.0078125 C-125.37574652 17.0078125 -123.8938655 15.86693558 -119.92578125 13.3828125 C-98.93278483 0.8334111 -73.31440421 -2.51901718 -49.53125 3.03125 C-35.13322094 7.14497259 -22.51636684 13.3193213 -11.11328125 23.0078125 C-9.78761383 24.01795292 -8.45680404 25.02154464 -7.11328125 26.0078125 C-4.16643804 24.69009572 -2.20275603 23.30216669 -0.01953125 20.93359375 C0.53605469 20.34900391 1.09164062 19.76441406 1.6640625 19.16210938 C2.81835925 17.92798031 3.96676282 16.68831437 5.109375 15.44335938 C5.66496094 14.86263672 6.22054687 14.28191406 6.79296875 13.68359375 C7.54030273 12.8778894 7.54030273 12.8778894 8.30273438 12.0559082 C9.88671875 11.0078125 9.88671875 11.0078125 11.94799805 11.20605469 C16.74325568 13.18913315 19.83192827 18.99710119 22.88671875 23.0078125 C23.5003125 23.79671875 24.11390625 24.585625 24.74609375 25.3984375 C32.77757114 36.22987949 38.75623461 49.21948084 42.88671875 62.0078125 C43.47646484 63.81378906 43.47646484 63.81378906 44.078125 65.65625 C49.71764309 85.19588758 49.54335084 110.80280873 42.88671875 130.0078125 C42.67241211 130.66410645 42.45810547 131.32040039 42.23730469 131.99658203 C37.60289223 146.1325519 30.84529565 159.10970256 21.88671875 171.0078125 C17.78224483 170.49004629 15.92972352 168.36153806 13.13671875 165.4453125 C11.93789063 164.20587891 11.93789063 164.20587891 10.71484375 162.94140625 C10.1115625 162.30332031 9.50828125 161.66523438 8.88671875 161.0078125 C10.61027763 157.41120239 12.62179992 154.01051306 14.63671875 150.5703125 C29.06979898 125.43061838 34.53889734 97.52701545 26.8515625 69.0859375 C23.91096798 58.79690328 19.75776754 49.44014365 14.01171875 40.3828125 C11.88671875 37.0078125 11.88671875 37.0078125 11.88671875 35.0078125 C7.82647554 37.04583385 7.82647554 37.04583385 5.88671875 41.0078125 C7.35801545 43.72349185 7.35801545 43.72349185 9.44921875 46.6953125 C22.2128274 66.40535054 26.1331739 91.22887163 21.75537109 114.19897461 C18.49429048 129.03834292 12.51013179 141.57093458 3.88671875 154.0078125 C0.53850977 152.54155394 -1.80594484 150.67122803 -4.42578125 148.1328125 C-5.14378906 147.45476562 -5.86179687 146.77671875 -6.6015625 146.078125 C-8.11328125 144.0078125 -8.11328125 144.0078125 -8.08203125 142.1796875 C-6.98387846 139.71769979 -5.71783858 137.37465033 -4.38305664 135.03344727 C5.73963768 117.2565072 8.2916237 98.02388319 3.88671875 78.0078125 C-1.79302159 57.32498447 -12.97740463 39.83616304 -31.80078125 28.8203125 C-51.5836333 17.7274499 -73.20171164 15.01120188 -95.11328125 21.0078125 C-115.91234068 27.51154316 -131.44912328 41.00692446 -142.04882812 59.95898438 C-147.64587644 70.73201866 -150.50894893 82.54023114 -150.42578125 94.6328125 C-150.4201416 95.50309082 -150.41450195 96.37336914 -150.40869141 97.27001953 C-150.01450043 118.5290119 -141.88822951 136.87576525 -127.36328125 152.3203125 C-121.88549746 157.56772221 -115.71908238 161.33792298 -109.11328125 165.0078125 C-108.40429688 165.41773438 -107.6953125 165.82765625 -106.96484375 166.25 C-90.53125473 175.19486491 -69.45342091 176.51157655 -51.47265625 172.05859375 C-43.38407615 169.52856114 -35.60308953 166.60330828 -29.11328125 161.0078125 C-30.76328125 159.3578125 -32.41328125 157.7078125 -34.11328125 156.0078125 C-39.1991797 157.63771467 -44.02891588 159.65091671 -48.91796875 161.7890625 C-64.48114729 167.72514038 -83.85393189 167.11667271 -99.25976562 160.83789062 C-117.58120259 152.63282139 -130.46118897 138.3252562 -138.11328125 120.0078125 C-144.28735944 100.98984903 -143.08557211 80.87279776 -134.11328125 63.0078125 C-124.65557145 46.4931642 -109.57152181 34.1577636 -91.11328125 29.0078125 C-73.11694088 24.25917262 -54.25094534 26.47049501 -37.85546875 35.3125 C-33.25199163 38.15852431 -29.15188249 41.4141419 -25.11328125 45.0078125 C-24.41460937 45.61238281 -23.7159375 46.21695313 -22.99609375 46.83984375 C-11.99806495 57.00339176 -3.84390591 73.05701832 -2.99047852 88.18457031 C-2.34442797 108.44188771 -2.34442797 108.44188771 -6.11328125 118.0078125 C-6.46519531 118.9875 -6.81710937 119.9671875 -7.1796875 120.9765625 C-9.5547208 127.18457034 -12.4858865 132.43362631 -16.46484375 137.75390625 C-18.16018273 140.07194083 -19.63573233 142.54523097 -21.11328125 145.0078125 C1.32671875 167.4478125 23.76671875 189.8878125 46.88671875 213.0078125 C43.17688092 215.48103772 40.3008409 215.30418139 36.01171875 215.2578125 C35.30402344 215.26554688 34.59632813 215.27328125 33.8671875 215.28125 C28.25169372 215.26033568 24.67421759 214.55134687 20.39135742 210.85302734 C19.53775635 209.98371582 18.68415527 209.1144043 17.8046875 208.21875 C17.34564529 207.75546295 16.88660309 207.2921759 16.41365051 206.81484985 C14.95993176 205.34443914 13.51703832 203.86391145 12.07421875 202.3828125 C11.08598508 201.37951972 10.09705954 200.37690793 9.10742188 199.375 C6.69363024 196.92588458 4.28712144 194.47004038 1.88671875 192.0078125 C-1.80365601 193.43218115 -4.88502304 195.05404682 -8.17578125 197.2578125 C-25.1494956 208.18081693 -44.85403002 215.02174275 -65.11328125 216.0078125 C-66.70269531 216.08708984 -66.70269531 216.08708984 -68.32421875 216.16796875 C-95.99981463 216.8583578 -126.19201682 208.98145171 -147.11328125 190.0078125 C-146.53830495 186.26201102 -144.97691063 184.38263444 -142.36328125 181.6953125 C-141.6878125 180.97730469 -141.01234375 180.25929688 -140.31640625 179.51953125 C-138.11328125 178.0078125 -138.11328125 178.0078125 -135.73046875 178.04296875 C-132.49498811 179.23575042 -129.87537012 180.87091904 -126.98828125 182.7578125 C-102.69870538 198.12866664 -75.04216329 201.98107263 -47.11328125 196.0078125 C-34.65152086 192.78791506 -22.80756666 187.13733611 -12.11328125 180.0078125 C-13.26694504 176.94292757 -13.26694504 176.94292757 -15.90625 175.21484375 C-18.94769313 174.92954024 -20.15711899 175.94817185 -22.67578125 177.6328125 C-43.79437906 190.95140265 -70.35027719 194.87759519 -94.73828125 189.4453125 C-111.47724338 185.30933634 -125.03622655 177.06704274 -138.11328125 166.0078125 C-143.88102846 170.89785905 -149.50805124 175.93265454 -155.11328125 181.0078125 C-168.41993594 175.23377952 -178.12721101 154.85358707 -183.36376953 141.96435547 C-194.73709432 112.27516172 -195.61085225 79.4884109 -183.23339844 49.90478516 C-172.89182067 26.85369826 -172.89182067 26.85369826 -164.11328125 21.0078125 C-163.45328125 21.3378125 -162.79328125 21.6678125 -162.11328125 22.0078125 C-162.11328125 22.6678125 -162.11328125 23.3278125 -162.11328125 24.0078125 C-161.53578125 24.2553125 -160.95828125 24.5028125 -160.36328125 24.7578125 C-157.70251274 26.23601723 -155.97771581 27.59095289 -154.11328125 30.0078125 C-154.4330091 34.42310188 -156.39529113 37.31187695 -158.80078125 40.9453125 C-173.71501465 64.34846492 -178.10133931 92.04842998 -172.48828125 119.0078125 C-169.43705244 132.44215532 -163.36342144 144.37232916 -156.11328125 156.0078125 C-153.14328125 155.0178125 -153.14328125 155.0178125 -150.11328125 154.0078125 C-151.80756293 149.77210829 -153.73396137 145.85111269 -155.98828125 141.8828125 C-168.44434878 119.19607908 -170.98672252 93.2485604 -164.05078125 68.4453125 C-160.33832941 56.1672036 -154.20087953 44.64315195 -145.7421875 34.98828125 C-144.15833359 33.06258837 -143.18415825 31.24474909 -142.11328125 29.0078125 C-142.5729126 28.57436523 -143.03254395 28.14091797 -143.50610352 27.69433594 C-145.57558976 25.7285998 -147.62564359 23.74371129 -149.67578125 21.7578125 C-150.39958984 21.07589844 -151.12339844 20.39398438 -151.86914062 19.69140625 C-152.54912109 19.02753906 -153.22910156 18.36367187 -153.9296875 17.6796875 C-154.56334229 17.0722168 -155.19699707 16.46474609 -155.84985352 15.83886719 C-157.11328125 14.0078125 -157.11328125 14.0078125 -156.9675293 11.93554688 C-155.57304132 8.7886829 -152.96998482 6.89230342 -150.36328125 4.7578125 C-149.77836914 4.27401123 -149.19345703 3.79020996 -148.59082031 3.29174805 C-106.05431896 -31.16509882 -43.93120685 -33.20880629 0 0 Z M-113.8203125 60.26953125 C-123.83318118 72.22697749 -127.90743354 85.82118466 -126.8984375 101.3046875 C-125.0360315 116.13298668 -118.16835474 129.78711707 -106.51953125 139.37890625 C-91.30479938 149.67848935 -75.36677602 152.46176469 -57.32421875 149.35546875 C-43.36465422 145.06446804 -31.52310518 135.30583283 -24.39453125 122.6328125 C-22.24340771 118.22563257 -20.57079122 113.68679323 -19.11328125 109.0078125 C-18.91863281 108.40839844 -18.72398437 107.80898438 -18.5234375 107.19140625 C-15.74345876 92.39132894 -19.22001768 77.64026916 -27.11328125 65.0078125 C-35.98619505 53.10331982 -47.43519162 45.232823 -62.11328125 42.0078125 C-65.58519971 41.60498959 -68.99542723 41.52926193 -72.48828125 41.5703125 C-73.8657251 41.58276001 -73.8657251 41.58276001 -75.27099609 41.59545898 C-90.94662698 41.98451147 -103.09954785 49.03744237 -113.8203125 60.26953125 Z " fill="#FBA9DC" transform="translate(322.11328125,153.9921875)"/>
<path d="M0 0 C2.625 0.3125 2.625 0.3125 4.375 1.9375 C8.9717432 10.67131208 7.23557868 23.34437282 4.6640625 32.46484375 C0.95929819 42.61812639 -6.11267645 52.06333256 -15.5078125 57.546875 C-18.08712025 58.6044991 -19.82288767 58.34929563 -22.375 57.3125 C-22.705 55.6625 -23.035 54.0125 -23.375 52.3125 C-22.73433594 51.83941406 -22.09367187 51.36632812 -21.43359375 50.87890625 C-11.00780913 42.90807538 -4.97385961 35.41638851 -2.375 22.3125 C-1.77550465 15.89789972 -2.43991099 9.58220905 -3.25390625 3.2109375 C-3.29386719 2.58445313 -3.33382813 1.95796875 -3.375 1.3125 C-2.375 0.3125 -2.375 0.3125 0 0 Z " fill="#F8AADA" transform="translate(289.375,232.6875)"/>
<path d="M0 0 C4.07108615 0.40088794 6.20265684 1.63841265 9.1875 4.375 C9.86167969 4.98085937 10.53585937 5.58671875 11.23046875 6.2109375 C13 8 13 8 15 11 C14.625 13.6875 14.625 13.6875 14 16 C11.8671875 16.8203125 11.8671875 16.8203125 9 17 C6.72853189 15.34637122 5.03456284 13.87549441 3.125 11.875 C2.61453125 11.38773438 2.1040625 10.90046875 1.578125 10.3984375 C0.1328125 8.9296875 0.1328125 8.9296875 -2 6 C-1.8255814 1.8255814 -1.8255814 1.8255814 0 0 Z " fill="#F6AAD9" transform="translate(273,212)"/>
<path d="M0 0 C4.53702523 0.58912469 4.53702523 0.58912469 6.52734375 2.35546875 C6.99269531 2.96003906 7.45804687 3.56460937 7.9375 4.1875 C11.52070752 8.5625324 15.42607662 12.52274633 19.4375 16.5 C20.07743896 17.13574951 20.71737793 17.77149902 21.37670898 18.42651367 C22.91575352 19.95308115 24.45758481 21.47683825 26 23 C23 23 23 23 20.76342773 21.10400391 C19.91208252 20.23694824 19.0607373 19.36989258 18.18359375 18.4765625 C17.726465 18.0151889 17.26933624 17.55381531 16.7983551 17.07846069 C15.33755221 15.60086087 13.88750274 14.11319231 12.4375 12.625 C11.45707359 11.62952496 10.47596148 10.63472475 9.49414062 9.640625 C6.98864857 7.10100328 4.49428092 4.55063415 2 2 C1.34 1.34 0.68 0.68 0 0 Z " fill="#EBAFD2" transform="translate(322,344)"/>
<path d="M0 0 C2.4375 0.8125 2.4375 0.8125 5 2 C5.33 2.99 5.66 3.98 6 5 C4.68 5.33 3.36 5.66 2 6 C1.67 7.65 1.34 9.3 1 11 C-0.32 10.34 -1.64 9.68 -3 9 C-1.125 2.25 -1.125 2.25 0 0 Z " fill="#FDA9DF" transform="translate(287,263)"/>
<path d="M0 0 C1.32 0.33 2.64 0.66 4 1 C-0.66666667 5.66666667 -5.33333333 10.33333333 -10 15 C-10 14.01 -10 13.02 -10 12 C-9.34 12 -8.68 12 -8 12 C-8 10.68 -8 9.36 -8 8 C-7.34 8 -6.68 8 -6 8 C-5.67 7.34 -5.34 6.68 -5 6 C-3.5625 4.375 -3.5625 4.375 -2 3 C-1.34 3 -0.68 3 0 3 C0 2.01 0 1.02 0 0 Z " fill="#EFAAD3" transform="translate(195,189)"/>
<path d="M0 0 C3 0 3 0 4.375 1.25 C4.91125 1.8275 5.4475 2.405 6 3 C6.886875 3.66 7.77375 4.32 8.6875 5 C9.450625 5.66 10.21375 6.32 11 7 C11 7.99 11 8.98 11 10 C7.81326038 8.59698853 5.67778594 6.92234929 3.25 4.4375 C2.63640625 3.81746094 2.0228125 3.19742188 1.390625 2.55859375 C0 1 0 1 0 0 Z " fill="#F2AAD5" transform="translate(171,173)"/>
<path d="M0 0 C-1.86186773 3.85672602 -3.89166594 7.03295385 -7 10 C-7.99 9.34 -8.98 8.68 -10 8 C-8.71451591 6.66070495 -7.42141845 5.32871357 -6.125 4 C-5.04605469 2.88625 -5.04605469 2.88625 -3.9453125 1.75 C-2 0 -2 0 0 0 Z " fill="#EEABCF" transform="translate(186,332)"/>
<path d="M0 0 C4.52615993 3.67832017 8.39424999 7.41086363 12 12 C11.01 12.33 10.02 12.66 9 13 C8.46375 12.113125 7.9275 11.22625 7.375 10.3125 C5.06688542 6.81711784 2.30162207 4.55125342 -1 2 C-0.67 1.34 -0.34 0.68 0 0 Z " fill="#EFADD3" transform="translate(354,353)"/>
<path d="M0 0 C0.33 0.66 0.66 1.32 1 2 C0.01 2.8971875 0.01 2.8971875 -1 3.8125 C-3.3373846 5.87501834 -3.3373846 5.87501834 -3 9 C-2.34 9.66 -1.68 10.32 -1 11 C-2.65 10.67 -4.3 10.34 -6 10 C-6.33 8.35 -6.66 6.7 -7 5 C-4.69 3.35 -2.38 1.7 0 0 Z " fill="#E9A9CE" transform="translate(273,280)"/>
<path d="M0 0 C1.2065625 0.0309375 1.2065625 0.0309375 2.4375 0.0625 C3.0975 1.3825 3.7575 2.7025 4.4375 4.0625 C3.2928125 4.2790625 3.2928125 4.2790625 2.125 4.5 C-0.64422908 5.0257594 -0.64422908 5.0257594 -3.5625 6.0625 C-3.605221 4.39638095 -3.60313832 2.72867115 -3.5625 1.0625 C-2.5625 0.0625 -2.5625 0.0625 0 0 Z " fill="#EFABD2" transform="translate(289.5625,232.9375)"/>
<path d="M0 0 C3.96 0.33 7.92 0.66 12 1 C12 1.33 12 1.66 12 2 C9.73139163 2.5304408 7.46001511 3.04905434 5.1875 3.5625 C3.29064453 3.99755859 3.29064453 3.99755859 1.35546875 4.44140625 C-2 5 -2 5 -5 4 C-4.360625 3.71125 -3.72125 3.4225 -3.0625 3.125 C-0.84793921 2.17176549 -0.84793921 2.17176549 0 0 Z " fill="#F1AFD4" transform="translate(229,170)"/>
<path d="M0 0 C0.33 0 0.66 0 1 0 C1.39063507 1.43333021 1.76198474 2.87192679 2.125 4.3125 C2.33382812 5.11300781 2.54265625 5.91351563 2.7578125 6.73828125 C3 9 3 9 1 12 C0.34 12 -0.32 12 -1 12 C-1.08159574 7.83861737 -0.98248524 4.0527516 0 0 Z " fill="#F3ADD7" transform="translate(132,228)"/>
<path d="M0 0 C7.48291572 6.15034169 7.48291572 6.15034169 10 10 C5.89665529 9.06742166 4.28397854 8.35870974 1.625 5 C0 2 0 2 0 0 Z " fill="#F1ABD4" transform="translate(311,310)"/>
<path d="M0 0 C1.11375 1.0209375 1.11375 1.0209375 2.25 2.0625 C4.75949064 4.28353676 4.75949064 4.28353676 7.3125 3.75 C7.869375 3.5025 8.42625 3.255 9 3 C9 3.99 9 4.98 9 6 C7.72125 6.061875 6.4425 6.12375 5.125 6.1875 C4.40570313 6.22230469 3.68640625 6.25710937 2.9453125 6.29296875 C2.30335938 6.19628906 1.66140625 6.09960938 1 6 C0.34 5.01 -0.32 4.02 -1 3 C-0.67 2.01 -0.34 1.02 0 0 Z " fill="#F2ADD7" transform="translate(188,168)"/>
<path d="M0 0 C1.33333333 0.66666667 2.66666667 1.33333333 4 2 C4.66 1.67 5.32 1.34 6 1 C6.33 1.99 6.66 2.98 7 4 C5.02 4.99 5.02 4.99 3 6 C1.35 4.35 -0.3 2.7 -2 1 C-1.34 0.67 -0.68 0.34 0 0 Z " fill="#F6A4D0" transform="translate(310,163)"/>
<path d="M0 0 C1.45047396 2.90094791 0.45356803 4.55972596 -0.4375 7.625 C-0.86869141 9.12933594 -0.86869141 9.12933594 -1.30859375 10.6640625 C-1.53675781 11.43492187 -1.76492187 12.20578125 -2 13 C-2.66 13 -3.32 13 -4 13 C-4.45732667 7.28341664 -3.52273754 4.51350747 0 0 Z " fill="#F0AFD5" transform="translate(175,221)"/>
<path d="M0 0 C3.48331435 3.01887244 4.79157144 5.56909529 6 10 C3.5625 8.9375 3.5625 8.9375 1 7 C0.1875 3.3125 0.1875 3.3125 0 0 Z " fill="#F4ADD2" transform="translate(352,190)"/>
<path d="M0 0 C-1.12915504 3.38746512 -2.22743073 4.37451366 -4.875 6.6875 C-5.57367188 7.31011719 -6.27234375 7.93273437 -6.9921875 8.57421875 C-9 10 -9 10 -12 10 C-10.38113585 8.32737283 -8.7547271 6.66204463 -7.125 5 C-6.22007812 4.071875 -5.31515625 3.14375 -4.3828125 2.1875 C-2 0 -2 0 0 0 Z " fill="#EDADCE" transform="translate(334,165)"/>
<path d="M0 0 C3.63 0 7.26 0 11 0 C10.01 0.495 10.01 0.495 9 1 C8.67 1.66 8.34 2.32 8 3 C6.02 3 4.04 3 2 3 C2 2.34 2 1.68 2 1 C1.34 0.67 0.68 0.34 0 0 Z " fill="#F1A8D2" transform="translate(235,131)"/>
<path d="M0 0 C0.66 0.33 1.32 0.66 2 1 C0.02 3.97 -1.96 6.94 -4 10 C-4.66 9.34 -5.32 8.68 -6 8 C-4 5.33333333 -2 2.66666667 0 0 Z " fill="#EFADD0" transform="translate(351,310)"/>
<path d="M0 0 C3.53647504 1.67517239 4.7911563 2.49280817 6.3125 6.1875 C6.539375 7.115625 6.76625 8.04375 7 9 C6.01 9.495 6.01 9.495 5 10 C4.16121545 8.71186658 3.32913217 7.41936744 2.5 6.125 C2.0359375 5.40570313 1.571875 4.68640625 1.09375 3.9453125 C0 2 0 2 0 0 Z " fill="#EBAAD4" transform="translate(167,296)"/>
<path d="M0 0 C2.64 0.99 5.28 1.98 8 3 C8 3.66 8 4.32 8 5 C8.66 5 9.32 5 10 5 C9.67 5.66 9.34 6.32 9 7 C6.03 5.35 3.06 3.7 0 2 C0 1.34 0 0.68 0 0 Z " fill="#ECAAD5" transform="translate(186,350)"/>
<path d="M0 0 C0.99 0.66 1.98 1.32 3 2 C2.67 3.65 2.34 5.3 2 7 C1.01 7.33 0.02 7.66 -1 8 C-1.33 7.01 -1.66 6.02 -2 5 C-1.34 4.34 -0.68 3.68 0 3 C0 2.01 0 1.02 0 0 Z " fill="#F6ABD0" transform="translate(165,182)"/>
<path d="M0 0 C1.65 0.33 3.3 0.66 5 1 C2.29811996 2.80125336 0.06942297 4.00243753 -3 5 C-3.99 4.67 -4.98 4.34 -6 4 C-4.35 3.67 -2.7 3.34 -1 3 C-0.67 2.01 -0.34 1.02 0 0 Z " fill="#F1A7D7" transform="translate(296,357)"/>
<path d="M0 0 C0 0.99 0 1.98 0 3 C-2.8125 4.5625 -2.8125 4.5625 -6 6 C-6.99 5.67 -7.98 5.34 -9 5 C-6.03 3.35 -3.06 1.7 0 0 Z " fill="#EFA5D5" transform="translate(305,337)"/>
<path d="M0 0 C0.99 0.33 1.98 0.66 3 1 C2.67 2.32 2.34 3.64 2 5 C0.68 4.67 -0.64 4.34 -2 4 C-2 3.01 -2 2.02 -2 1 C-1.34 0.67 -0.68 0.34 0 0 Z " fill="#F7B6DE" transform="translate(315,265)"/>
<path d="M0 0 C0 3 0 3 -1 6 C-3.0625 6.6875 -3.0625 6.6875 -5 7 C-3.70700306 4.11562221 -2.34058637 2.12780579 0 0 Z " fill="#F2B1D6" transform="translate(180,185)"/>
<path d="" fill="#FFFFFF" transform="translate(0,0)"/>
<path d="" fill="#FFFFFF" transform="translate(0,0)"/>
<path d="" fill="#FFFFFF" transform="translate(0,0)"/>
<path d="" fill="#FFFFFF" transform="translate(0,0)"/>
<path d="" fill="#FFFFFF" transform="translate(0,0)"/>
<path d="" fill="#FFFFFF" transform="translate(0,0)"/>
<path d="" fill="#FFFFFF" transform="translate(0,0)"/>
<path d="" fill="#FFFFFF" transform="translate(0,0)"/>
<path d="" fill="#FFFFFF" transform="translate(0,0)"/>
<path d="" fill="#FFFFFF" transform="translate(0,0)"/>
<path d="" fill="#FFFFFF" transform="translate(0,0)"/>
<path d="" fill="#FFFFFF" transform="translate(0,0)"/>
<path d="" fill="#FFFFFF" transform="translate(0,0)"/>
<path d="" fill="#FFFFFF" transform="translate(0,0)"/>
<path d="" fill="#FFFFFF" transform="translate(0,0)"/>
<path d="" fill="#FFFFFF" transform="translate(0,0)"/>
<path d="" fill="#FFFFFF" transform="translate(0,0)"/>
<path d="" fill="#FFFFFF" transform="translate(0,0)"/>
<path d="" fill="#FFFFFF" transform="translate(0,0)"/>
<path d="" fill="#FFFFFF" transform="translate(0,0)"/>
<path d="" fill="#FFFFFF" transform="translate(0,0)"/>
<path d="" fill="#FFFFFF" transform="translate(0,0)"/>
<path d="" fill="#FFFFFF" transform="translate(0,0)"/>
<path d="" fill="#FFFFFF" transform="translate(0,0)"/>
<path d="" fill="#FFFFFF" transform="translate(0,0)"/>
<path d="" fill="#FFFFFF" transform="translate(0,0)"/>
<path d="" fill="#FFFFFF" transform="translate(0,0)"/>
<path d="" fill="#FFFFFF" transform="translate(0,0)"/>
<path d="" fill="#FFFFFF" transform="translate(0,0)"/>
<path d="" fill="#FFFFFF" transform="translate(0,0)"/>
<path d="" fill="#FFFFFF" transform="translate(0,0)"/>
<path d="" fill="#FFFFFF" transform="translate(0,0)"/>
<path d="" fill="#FFFFFF" transform="translate(0,0)"/>
<path d="" fill="#FFFFFF" transform="translate(0,0)"/>
<path d="" fill="#FFFFFF" transform="translate(0,0)"/>
<path d="" fill="#FFFFFF" transform="translate(0,0)"/>
<path d="" fill="#FFFFFF" transform="translate(0,0)"/>
<path d="" fill="#FFFFFF" transform="translate(0,0)"/>
<path d="" fill="#FFFFFF" transform="translate(0,0)"/>
<path d="" fill="#FFFFFF" transform="translate(0,0)"/>
<path d="" fill="#FFFFFF" transform="translate(0,0)"/>
<path d="" fill="#FFFFFF" transform="translate(0,0)"/>
<path d="" fill="#FFFFFF" transform="translate(0,0)"/>
<path d="" fill="#FFFFFF" transform="translate(0,0)"/>
<path d="" fill="#FFFFFF" transform="translate(0,0)"/>
<path d="" fill="#FFFFFF" transform="translate(0,0)"/>
<path d="" fill="#FFFFFF" transform="translate(0,0)"/>
<path d="" fill="#FFFFFF" transform="translate(0,0)"/>
<path d="" fill="#FFFFFF" transform="translate(0,0)"/>
<path d="" fill="#FFFFFF" transform="translate(0,0)"/>
<path d="" fill="#FFFFFF" transform="translate(0,0)"/>
<path d="" fill="#FFFFFF" transform="translate(0,0)"/>
<path d="" fill="#FFFFFF" transform="translate(0,0)"/>
<path d="" fill="#FFFFFF" transform="translate(0,0)"/>
<path d="" fill="#FFFFFF" transform="translate(0,0)"/>
<path d="" fill="#FFFFFF" transform="translate(0,0)"/>
<path d="" fill="#FFFFFF" transform="translate(0,0)"/>
<path d="" fill="#FFFFFF" transform="translate(0,0)"/>
<path d="" fill="#FFFFFF" transform="translate(0,0)"/>
<path d="" fill="#FFFFFF" transform="translate(0,0)"/>
<path d="" fill="#FFFFFF" transform="translate(0,0)"/>
<path d="" fill="#FFFFFF" transform="translate(0,0)"/>
<path d="" fill="#FFFFFF" transform="translate(0,0)"/>
<path d="" fill="#FFFFFF" transform="translate(0,0)"/>
<path d="" fill="#FFFFFF" transform="translate(0,0)"/>
<path d="" fill="#FFFFFF" transform="translate(0,0)"/>
<path d="" fill="#FFFFFF" transform="translate(0,0)"/>
<path d="" fill="#FFFFFF" transform="translate(0,0)"/>
</svg>
